<svg id="svg" version="1.1" xmlns="http://www.w3.org/2000/svg" xmlns:xlink="http://www.w3.org/1999/xlink" width="400" height="366.2790697674419" viewBox="0, 0, 400,366.2790697674419"><g id="svgg"><path id="path0" d="M218.239 7.281 C 216.040 7.399,213.947 7.568,213.588 7.657 C 213.229 7.745,209.731 8.220,205.814 8.711 C 201.897 9.202,197.842 9.735,196.802 9.895 C 195.763 10.055,192.166 10.518,188.808 10.924 C 185.451 11.330,180.480 11.978,177.762 12.364 C 175.044 12.750,171.708 13.213,170.349 13.391 C 168.990 13.570,167.224 13.832,166.424 13.974 C 165.625 14.115,161.223 14.696,156.643 15.263 C 152.063 15.831,146.372 16.553,143.998 16.868 C 141.623 17.183,137.653 17.702,135.174 18.021 C 132.696 18.341,129.230 18.803,127.471 19.048 C 125.712 19.293,123.292 19.629,122.093 19.795 C 120.894 19.960,119.128 20.213,118.169 20.357 C 114.617 20.890,112.200 21.228,105.814 22.087 C 102.217 22.570,98.642 23.097,97.870 23.256 C 97.099 23.416,96.002 23.547,95.433 23.547 C 94.864 23.547,93.598 23.678,92.621 23.839 C 91.643 24.000,87.900 24.520,84.302 24.995 C 76.474 26.028,74.647 26.276,69.331 27.024 C 67.093 27.340,63.103 27.864,60.465 28.190 C 57.827 28.515,54.753 28.905,53.634 29.055 C 52.515 29.206,50.422 29.473,48.983 29.650 C 46.494 29.955,45.352 30.103,39.971 30.812 C 37.733 31.107,31.087 32.101,16.860 34.270 C 10.711 35.207,6.934 36.512,6.422 37.875 C 5.768 39.615,5.228 42.832,5.230 44.975 C 5.233 48.135,5.826 48.866,9.656 50.429 C 15.812 52.942,17.137 53.569,17.263 54.027 C 18.193 57.411,17.969 58.098,13.771 64.734 C 7.756 74.243,7.325 75.225,8.412 76.962 C 8.897 77.738,9.187 77.907,10.029 77.907 C 11.101 77.907,11.067 77.935,14.193 74.426 C 15.262 73.225,15.417 73.147,16.179 73.415 L 17.006 73.706 16.993 89.687 C 16.986 98.477,16.824 114.695,16.632 125.727 C 16.067 158.277,15.722 184.642,15.391 220.640 C 15.143 247.632,14.995 255.000,14.662 256.942 C 13.995 260.830,14.094 263.455,14.943 264.443 C 16.177 265.877,21.325 265.722,22.252 264.222 C 22.360 264.048,22.491 253.876,22.544 241.618 C 22.597 229.361,22.780 210.894,22.951 200.581 C 23.122 190.269,23.387 173.132,23.539 162.500 C 23.692 151.868,23.946 135.712,24.105 126.599 C 24.263 117.485,24.528 101.657,24.692 91.424 C 25.020 71.060,25.136 68.124,25.638 67.519 C 26.092 66.972,26.685 67.153,31.044 69.162 C 38.362 72.534,49.380 77.602,54.797 80.087 C 57.834 81.480,64.375 84.488,69.331 86.770 C 93.039 97.687,97.664 99.814,107.413 104.288 C 113.169 106.929,120.233 110.166,123.110 111.482 C 125.988 112.798,131.744 115.450,135.901 117.375 C 140.058 119.299,144.200 121.201,145.106 121.602 C 147.638 122.721,147.485 121.210,147.262 142.857 C 147.154 153.421,146.955 175.342,146.819 191.570 C 146.684 207.798,146.428 235.858,146.250 253.924 C 146.073 271.991,145.797 301.032,145.637 318.459 C 145.477 335.887,145.227 350.895,145.082 351.811 C 144.938 352.727,144.725 355.046,144.611 356.963 L 144.403 360.449 145.402 361.449 C 147.778 363.824,153.219 363.477,154.728 360.853 C 155.220 359.998,155.236 359.551,154.955 354.603 C 154.577 347.963,154.574 330.958,154.944 300.145 C 155.102 287.035,155.366 261.461,155.532 243.314 C 156.004 191.676,156.350 161.114,156.575 151.199 L 156.781 142.078 157.743 140.680 C 158.271 139.912,159.967 136.952,161.511 134.104 C 165.343 127.034,173.237 112.237,174.530 109.699 C 175.953 106.907,176.246 106.786,184.718 105.490 C 186.545 105.211,200.874 102.657,213.953 100.279 C 215.792 99.945,218.259 99.484,219.435 99.254 C 222.292 98.697,222.884 98.724,223.261 99.428 C 223.908 100.637,223.348 193.471,222.637 202.979 C 222.225 208.487,222.841 209.660,226.147 209.660 C 229.514 209.660,230.317 208.282,229.846 203.312 C 229.452 199.153,229.447 195.162,229.769 140.843 C 229.908 117.500,230.132 98.186,230.266 97.923 C 230.537 97.393,231.350 97.186,237.500 96.079 C 239.818 95.662,242.762 95.130,244.041 94.897 C 245.320 94.664,250.749 93.691,256.105 92.734 C 261.461 91.777,266.563 90.860,267.442 90.696 C 268.321 90.532,272.703 89.746,277.180 88.951 C 286.889 87.225,288.403 86.953,290.116 86.622 C 290.836 86.483,293.714 85.969,296.512 85.480 C 303.437 84.269,320.351 81.254,324.273 80.532 C 362.716 73.453,361.313 73.626,366.705 75.315 C 372.199 77.036,371.802 76.570,371.802 81.308 C 371.802 85.779,370.756 127.380,370.492 133.430 C 370.397 135.589,370.204 141.999,370.063 147.674 C 369.922 153.350,369.671 161.984,369.506 166.860 C 369.223 175.230,369.008 182.820,368.309 209.084 C 367.926 223.473,366.836 259.809,366.563 267.297 C 366.446 270.494,366.141 274.419,365.885 276.017 C 365.187 280.365,365.242 281.419,366.211 282.347 C 368.385 284.430,372.324 284.476,374.038 282.439 L 374.786 281.550 374.585 274.859 C 374.399 268.664,374.506 263.153,375.314 237.355 C 375.480 232.078,375.728 223.576,375.867 218.459 C 376.005 213.343,376.195 207.064,376.288 204.506 C 376.382 201.948,376.590 195.080,376.752 189.244 C 377.507 162.030,377.941 146.740,378.218 137.645 C 378.384 132.209,378.645 123.249,378.799 117.733 C 379.615 88.448,379.434 91.011,380.689 90.993 C 383.034 90.959,384.712 92.142,386.814 95.309 C 388.719 98.182,389.079 98.524,390.203 98.537 C 391.844 98.556,393.167 95.948,392.460 94.090 C 391.383 91.255,387.849 84.724,382.848 76.324 C 379.636 70.929,379.684 70.631,383.895 69.905 C 393.891 68.181,394.482 67.967,395.662 65.654 C 396.475 64.059,396.748 60.129,396.145 58.691 C 395.903 58.115,395.614 57.105,395.503 56.447 C 395.005 53.500,395.414 53.671,374.128 47.517 C 364.594 44.760,361.685 43.912,347.820 39.843 C 341.744 38.060,331.802 35.221,325.727 33.534 C 319.651 31.847,312.456 29.843,309.738 29.082 C 307.020 28.320,302.376 27.023,299.419 26.200 C 296.461 25.377,292.667 24.318,290.988 23.847 C 289.310 23.377,286.235 22.522,284.157 21.947 C 282.078 21.372,279.266 20.581,277.907 20.190 C 276.548 19.798,273.474 18.945,271.076 18.293 C 268.677 17.641,264.753 16.537,262.355 15.840 C 255.849 13.950,237.139 8.825,234.253 8.143 C 231.823 7.569,225.802 6.950,223.401 7.028 C 222.762 7.048,220.439 7.162,218.239 7.281 M51.918 68.559 C 84.162 82.377,82.949 81.849,101.308 90.040 C 110.101 93.964,120.174 98.447,123.692 100.002 C 127.209 101.557,132.638 103.971,135.756 105.366 C 141.808 108.074,143.365 108.692,146.003 109.431 C 147.844 109.948,147.808 109.878,147.688 112.645 C 147.530 116.292,150.516 117.296,118.314 102.769 C 115.356 101.435,108.946 98.554,104.070 96.366 C 99.193 94.179,91.214 90.586,86.337 88.383 C 81.461 86.179,74.855 83.197,71.657 81.756 C 68.459 80.315,63.031 77.866,59.593 76.315 C 53.373 73.509,49.153 71.609,40.843 67.873 C 24.078 60.335,24.441 60.562,25.608 58.380 C 26.092 57.476,25.717 57.331,51.918 68.559 M383.272 82.478 C 385.541 86.305,385.782 86.919,385.010 86.919 C 383.667 86.919,380.233 81.815,380.233 79.819 C 380.233 77.969,380.995 78.636,383.272 82.478 M167.384 109.645 C 167.623 110.905,158.609 127.134,157.591 127.278 L 156.896 127.377 157.036 119.169 C 157.191 109.997,157.142 110.193,159.285 110.157 C 159.854 110.147,161.497 109.898,162.936 109.602 C 166.074 108.957,167.256 108.968,167.384 109.645 M166.656 118.014 C 166.574 118.328,166.305 118.753,166.057 118.959 C 165.677 119.274,165.683 119.185,166.096 118.387 C 166.648 117.319,166.878 117.166,166.656 118.014 M164.634 121.976 C 163.834 123.734,159.836 131.084,159.120 132.114 C 158.259 133.352,158.766 131.798,159.914 129.676 C 164.633 120.956,166.442 118.006,164.634 121.976 " stroke="none" fill="#33343e" fill-rule="evenodd"></path><path id="path1" d="M0.000 183.140 L 0.000 366.279 200.000 366.279 L 400.000 366.279 400.000 183.140 L 400.000 0.000 200.000 0.000 L 0.000 0.000 0.000 183.140 M228.148 7.269 C 230.119 7.422,232.867 7.815,234.253 8.143 C 237.139 8.825,255.849 13.950,262.355 15.840 C 264.753 16.537,268.677 17.641,271.076 18.293 C 273.474 18.945,276.548 19.798,277.907 20.190 C 279.266 20.581,282.078 21.372,284.157 21.947 C 286.235 22.522,289.310 23.377,290.988 23.847 C 292.667 24.318,296.461 25.377,299.419 26.200 C 302.376 27.023,307.020 28.320,309.738 29.082 C 312.456 29.843,319.651 31.847,325.727 33.534 C 331.802 35.221,341.744 38.060,347.820 39.843 C 361.685 43.912,364.594 44.760,374.128 47.517 C 395.414 53.671,395.005 53.500,395.503 56.447 C 395.614 57.105,395.903 58.115,396.145 58.691 C 396.748 60.129,396.475 64.059,395.662 65.654 C 394.482 67.967,393.891 68.181,383.895 69.905 C 379.684 70.631,379.636 70.929,382.848 76.324 C 387.849 84.724,391.383 91.255,392.460 94.090 C 393.167 95.948,391.844 98.556,390.203 98.537 C 389.079 98.524,388.719 98.182,386.814 95.309 C 384.712 92.142,383.034 90.959,380.689 90.993 C 379.434 91.011,379.615 88.448,378.799 117.733 C 378.645 123.249,378.384 132.209,378.218 137.645 C 377.941 146.740,377.507 162.030,376.752 189.244 C 376.590 195.080,376.382 201.948,376.288 204.506 C 376.195 207.064,376.005 213.343,375.867 218.459 C 375.728 223.576,375.480 232.078,375.314 237.355 C 374.506 263.153,374.399 268.664,374.585 274.859 L 374.786 281.550 374.038 282.439 C 372.324 284.476,368.385 284.430,366.211 282.347 C 365.242 281.419,365.187 280.365,365.885 276.017 C 366.141 274.419,366.446 270.494,366.563 267.297 C 366.836 259.809,367.926 223.473,368.309 209.084 C 369.008 182.820,369.223 175.230,369.506 166.860 C 369.671 161.984,369.922 153.350,370.063 147.674 C 370.204 141.999,370.397 135.589,370.492 133.430 C 370.756 127.380,371.802 85.779,371.802 81.308 C 371.802 76.570,372.199 77.036,366.705 75.315 C 361.313 73.626,362.716 73.453,324.273 80.532 C 320.351 81.254,303.437 84.269,296.512 85.480 C 293.714 85.969,290.836 86.483,290.116 86.622 C 288.403 86.953,286.889 87.225,277.180 88.951 C 272.703 89.746,268.321 90.532,267.442 90.696 C 266.563 90.860,261.461 91.777,256.105 92.734 C 250.749 93.691,245.320 94.664,244.041 94.897 C 242.762 95.130,239.818 95.662,237.500 96.079 C 231.350 97.186,230.537 97.393,230.266 97.923 C 230.132 98.186,229.908 117.500,229.769 140.843 C 229.447 195.162,229.452 199.153,229.846 203.312 C 230.317 208.282,229.514 209.660,226.147 209.660 C 222.841 209.660,222.225 208.487,222.637 202.979 C 223.348 193.471,223.908 100.637,223.261 99.428 C 222.884 98.724,222.292 98.697,219.435 99.254 C 214.713 100.175,187.438 105.074,184.718 105.490 C 176.246 106.786,175.953 106.907,174.530 109.699 C 173.237 112.237,165.343 127.034,161.511 134.104 C 159.967 136.952,158.271 139.912,157.743 140.680 L 156.781 142.078 156.575 151.199 C 156.350 161.114,156.004 191.676,155.532 243.314 C 155.366 261.461,155.102 287.035,154.944 300.145 C 154.574 330.958,154.577 347.963,154.955 354.603 C 155.236 359.551,155.220 359.998,154.728 360.853 C 153.219 363.477,147.778 363.824,145.402 361.449 L 144.403 360.449 144.611 356.963 C 144.725 355.046,144.938 352.727,145.082 351.811 C 145.227 350.895,145.477 335.887,145.637 318.459 C 145.797 301.032,146.073 271.991,146.250 253.924 C 146.428 235.858,146.684 207.798,146.819 191.570 C 146.955 175.342,147.154 153.421,147.262 142.857 C 147.485 121.210,147.638 122.721,145.106 121.602 C 144.200 121.201,140.058 119.299,135.901 117.375 C 131.744 115.450,125.988 112.798,123.110 111.482 C 120.233 110.166,113.169 106.929,107.413 104.288 C 97.664 99.814,93.039 97.687,69.331 86.770 C 64.375 84.488,57.834 81.480,54.797 80.087 C 49.380 77.602,38.362 72.534,31.044 69.162 C 26.685 67.153,26.092 66.972,25.638 67.519 C 25.136 68.124,25.020 71.060,24.692 91.424 C 24.528 101.657,24.263 117.485,24.105 126.599 C 23.946 135.712,23.692 151.868,23.539 162.500 C 23.387 173.132,23.122 190.269,22.951 200.581 C 22.780 210.894,22.597 229.361,22.544 241.618 C 22.491 253.876,22.360 264.048,22.252 264.222 C 21.325 265.722,16.177 265.877,14.943 264.443 C 14.094 263.455,13.995 260.830,14.662 256.942 C 14.995 255.000,15.143 247.632,15.391 220.640 C 15.722 184.642,16.067 158.277,16.632 125.727 C 16.824 114.695,16.986 98.477,16.993 89.687 L 17.006 73.706 16.179 73.415 C 15.417 73.147,15.262 73.225,14.193 74.426 C 11.067 77.935,11.101 77.907,10.029 77.907 C 9.187 77.907,8.897 77.738,8.412 76.962 C 7.325 75.225,7.756 74.243,13.771 64.734 C 17.969 58.098,18.193 57.411,17.263 54.027 C 17.137 53.569,15.812 52.942,9.656 50.429 C 5.826 48.866,5.233 48.135,5.230 44.975 C 5.228 42.832,5.768 39.615,6.422 37.875 C 6.934 36.512,10.711 35.207,16.860 34.270 C 31.087 32.101,37.733 31.107,39.971 30.812 C 45.352 30.103,46.494 29.955,48.983 29.650 C 50.422 29.473,52.515 29.206,53.634 29.055 C 54.753 28.905,57.827 28.515,60.465 28.190 C 63.103 27.864,67.093 27.340,69.331 27.024 C 74.647 26.276,76.474 26.028,84.302 24.995 C 87.900 24.520,91.643 24.000,92.621 23.839 C 93.598 23.678,94.864 23.547,95.433 23.547 C 96.002 23.547,97.099 23.416,97.870 23.256 C 98.642 23.097,102.217 22.570,105.814 22.087 C 112.200 21.228,114.617 20.890,118.169 20.357 C 119.128 20.213,120.894 19.960,122.093 19.795 C 123.292 19.629,125.712 19.293,127.471 19.048 C 129.230 18.803,132.696 18.341,135.174 18.021 C 137.653 17.702,141.623 17.183,143.998 16.868 C 146.372 16.553,152.063 15.831,156.643 15.263 C 161.223 14.696,165.625 14.115,166.424 13.974 C 167.224 13.832,168.990 13.570,170.349 13.391 C 171.708 13.213,175.044 12.750,177.762 12.364 C 180.480 11.978,185.451 11.330,188.808 10.924 C 192.166 10.518,195.763 10.055,196.802 9.895 C 197.842 9.735,201.897 9.202,205.814 8.711 C 209.731 8.220,213.229 7.745,213.588 7.657 C 214.160 7.516,220.116 7.134,223.401 7.028 C 224.041 7.007,226.177 7.115,228.148 7.269 M25.608 58.380 C 24.441 60.562,24.078 60.335,40.843 67.873 C 49.153 71.609,53.373 73.509,59.593 76.315 C 63.031 77.866,68.459 80.315,71.657 81.756 C 74.855 83.197,81.461 86.179,86.337 88.383 C 91.214 90.586,99.193 94.179,104.070 96.366 C 108.946 98.554,115.356 101.435,118.314 102.769 C 150.516 117.296,147.530 116.292,147.688 112.645 C 147.808 109.878,147.844 109.948,146.003 109.431 C 143.365 108.692,141.808 108.074,135.756 105.366 C 132.638 103.971,127.209 101.557,123.692 100.002 C 120.174 98.447,110.101 93.964,101.308 90.040 C 82.949 81.849,84.162 82.377,51.918 68.559 C 25.717 57.331,26.092 57.476,25.608 58.380 M380.233 79.819 C 380.233 81.815,383.667 86.919,385.010 86.919 C 385.782 86.919,385.541 86.305,383.272 82.478 C 380.995 78.636,380.233 77.969,380.233 79.819 M162.936 109.602 C 161.497 109.898,159.854 110.147,159.285 110.157 C 157.142 110.193,157.191 109.997,157.036 119.169 L 156.896 127.377 157.591 127.278 C 158.488 127.152,159.044 126.247,163.701 117.349 C 168.406 108.356,168.418 108.475,162.936 109.602 M166.096 118.387 C 165.683 119.185,165.677 119.274,166.057 118.959 C 166.465 118.620,166.961 117.442,166.695 117.442 C 166.634 117.442,166.365 117.867,166.096 118.387 M163.161 123.765 C 159.542 130.296,158.721 131.872,158.721 132.284 C 158.721 133.038,162.970 125.630,164.634 121.976 C 165.938 119.113,165.328 119.853,163.161 123.765 " stroke="none" fill="none" fill-rule="evenodd"></path></g></svg>